HIERARCHY
ROOT Hips
{
	OFFSET 0.000000 0.000000 0.000000
	CHANNELS 6 Xposition Yposition Zposition Zrotation Yrotation Xrotation 
	JOINT LHipJoint
	{
		OFFSET 0.000000 0.000000 0.000000
		CHANNELS 3 Zrotation Yrotation Xrotation
		JOINT LeftUpLeg
		{
			OFFSET 1.363060 -1.794630 0.839290
			CHANNELS 3 Zrotation Yrotation Xrotation
			JOINT LeftLeg
			{
				OFFSET 2.448110 -6.726130 0.000000
				CHANNELS 3 Zrotation Yrotation Xrotation
				JOINT LeftFoot
				{
					OFFSET 2.562200 -7.039590 0.000000
					CHANNELS 3 Zrotation Yrotation Xrotation
					JOINT LeftToeBase
					{
						OFFSET 0.157640 -0.433110 2.322550
						CHANNELS 3 Zrotation Yrotation Xrotation
						End Site
						{
							OFFSET 0.000000 0.000000 0.000000
						}
					}
				}
			}
		}
	}
	JOINT RHipJoint
	{
		OFFSET 0.000000 0.000000 0.000000
		CHANNELS 3 Zrotation Yrotation Xrotation
		JOINT RightUpLeg
		{
			OFFSET -1.305520 -1.794630 0.839290
			CHANNELS 3 Zrotation Yrotation Xrotation
			JOINT RightLeg
			{
				OFFSET -2.542530 -6.985550 0.000000
				CHANNELS 3 Zrotation Yrotation Xrotation
				JOINT RightFoot
				{
					OFFSET -2.568260 -7.056230 0.000000
					CHANNELS 3 Zrotation Yrotation Xrotation
					JOINT RightToeBase
					{
						OFFSET -0.164730 -0.452590 2.363150
						CHANNELS 3 Zrotation Yrotation Xrotation
						End Site
						{
							OFFSET 0.000000 0.000000 0.000000
						}
					}
				}
			}
		}
	}
	JOINT LowerBack
	{
		OFFSET 0.000000 0.000000 0.000000
		CHANNELS 3 Zrotation Yrotation Xrotation
		JOINT Spine
		{
			OFFSET 0.028270 2.035590 -0.193380
			CHANNELS 3 Zrotation Yrotation Xrotation
			JOINT Spine1
			{
				OFFSET 0.056720 2.048850 -0.042750
				CHANNELS 3 Zrotation Yrotation Xrotation
				JOINT Neck
				{
					OFFSET 0.000000 0.000000 0.000000
					CHANNELS 3 Zrotation Yrotation Xrotation
					JOINT Neck1
					{
						OFFSET -0.054170 1.746240 0.172020
						CHANNELS 3 Zrotation Yrotation Xrotation
						JOINT Head
						{
							OFFSET 0.104070 1.761360 -0.123970
							CHANNELS 3 Zrotation Yrotation Xrotation
							End Site
							{
								OFFSET 0.000000 0.000000 0.000000
							}
						}
					}
				}
				JOINT LeftShoulder
				{
					OFFSET 0.000000 0.000000 0.000000
					CHANNELS 3 Zrotation Yrotation Xrotation
					JOINT LeftArm
					{
						OFFSET 3.362410 1.200890 -0.311210
						CHANNELS 3 Zrotation Yrotation Xrotation
						JOINT LeftForeArm
						{
							OFFSET 4.983000 -0.000000 -0.000000
							CHANNELS 3 Zrotation Yrotation Xrotation
							JOINT LeftHand
							{
								OFFSET 3.483560 -0.000000 -0.000000
								CHANNELS 3 Zrotation Yrotation Xrotation
								JOINT LeftFingerBase
								{
									OFFSET 0.000000 0.000000 0.000000
									CHANNELS 3 Zrotation Yrotation Xrotation
									JOINT LeftHandIndex1
									{
										OFFSET 0.715260 -0.000000 -0.000000
										CHANNELS 3 Zrotation Yrotation Xrotation
										End Site
										{
											OFFSET 0.000000 0.000000 0.000000
										}
									}
								}
								JOINT LThumb
								{
									OFFSET 0.000000 0.000000 0.000000
									CHANNELS 3 Zrotation Yrotation Xrotation
									End Site
									{
										OFFSET 0.000000 0.000000 0.000000
									}
								}
							}
						}
					}
				}
				JOINT RightShoulder
				{
					OFFSET 0.000000 0.000000 0.000000
					CHANNELS 3 Zrotation Yrotation Xrotation
					JOINT RightArm
					{
						OFFSET -3.136600 1.374050 -0.404650
						CHANNELS 3 Zrotation Yrotation Xrotation
						JOINT RightForeArm
						{
							OFFSET -5.241900 -0.000000 -0.000000
							CHANNELS 3 Zrotation Yrotation Xrotation
							JOINT RightHand
							{
								OFFSET -3.444170 -0.000000 -0.000000
								CHANNELS 3 Zrotation Yrotation Xrotation
								JOINT RightFingerBase
								{
									OFFSET 0.000000 0.000000 0.000000
									CHANNELS 3 Zrotation Yrotation Xrotation
									JOINT RightHandIndex1
									{
										OFFSET -0.622530 -0.000000 -0.000000
										CHANNELS 3 Zrotation Yrotation Xrotation
										End Site
										{
											OFFSET 0.000000 0.000000 0.000000
										}
									}
								}
								JOINT RThumb
								{
									OFFSET 0.000000 0.000000 0.000000
									CHANNELS 3 Zrotation Yrotation Xrotation
									End Site
									{
										OFFSET 0.000000 0.000000 0.000000
									}
								}
							}
						}
					}
				}
			}
		}
	}
}
MOTION
Frames: 7
Frame Time: 0.008333
-0.571643 17.960042 -1.117173 -5.901088 79.030205 11.662559 -12.395802 4.273116 0.191724 -4.579990 17.589637 -10.377116 -1.450442 0.837809 17.399826 0.419998 -2.465909 19.457595 -1.189000 -0.000000 -68.592300 8.812942 -2.314798 1.243540 18.934989 -5.548533 -44.010529 2.365652 -3.178518 36.862909 1.104590 7.673301 7.075417 1.600600 0.000000 -65.888800 4.179114 -1.811102 -2.471093 1.091011 -2.067350 -3.490912 -1.905171 -2.147301 -0.611825 -0.783837 -5.778644 -7.080473 0.850124 0.057052 0.156062 0.000000 0.000000 0.000000 14.550454 0.297906 5.077316 14.477409 -54.476462 15.560254 -0.402551 -53.072345 0.061226 -21.370751 4.258239 -0.807678 0.484898 0.068405 0.000000 0.000000 0.000000 0.000000 0.000000 0.000000 0.000000 -11.854911 -1.338125 -0.960795 -1.613226 83.354957 -1.114134 -0.005931 30.575302 0.035222 18.423669 -2.837770 -0.460198 -0.368031 -0.050911 0.000000 0.000000 0.000000 0.000000 0.000000 0.000000 0.000000 
-0.314800 18.006470 -1.055014 -4.802477 78.811825 12.966347 -12.461886 4.398910 0.153558 -4.215458 18.068055 -10.070799 -1.381454 0.888661 17.757228 0.512502 -2.690589 21.287979 -1.420600 -0.000000 -67.446099 8.638271 -2.464198 1.647097 19.509774 -4.741274 -43.229218 2.831433 -2.789555 32.171258 1.258667 8.015562 7.924689 1.738800 -0.000000 -66.669100 4.199552 -1.878079 -2.874795 1.081284 -2.152265 -3.529944 -2.024758 -2.238918 -0.413553 -0.566117 -6.188736 -7.212003 0.782675 0.054741 0.117004 0.000000 0.000000 0.000000 14.549092 0.779953 5.009282 14.342905 -54.219578 16.867469 -0.268244 -56.730694 0.063638 -21.112349 5.073121 -0.954862 0.478462 0.058853 0.000000 0.000000 0.000000 0.000000 0.000000 0.000000 0.000000 -11.124991 -1.893625 -0.653917 -4.666446 83.346330 -1.610846 0.035327 33.459010 0.037278 19.843149 -3.512167 -0.618987 -0.389841 -0.036753 0.000000 0.000000 0.000000 0.000000 0.000000 0.000000 0.000000 
-0.058711 18.038937 -0.991159 -3.317805 78.625588 14.612241 -12.487200 4.513272 0.135509 -3.963423 18.267210 -9.702797 -1.293010 0.933313 18.361065 0.615549 -2.375848 22.560442 -1.384100 0.000000 -66.001900 8.499503 -2.586497 2.009746 20.000664 -4.126848 -42.467464 3.262153 -2.385777 27.688787 1.402835 8.325164 9.040272 1.910500 -0.000001 -67.519299 4.139941 -1.946479 -3.248807 1.052604 -2.232532 -3.574215 -2.147874 -2.324671 -0.269244 -0.339524 -6.618676 -7.325076 0.708467 0.051516 0.083691 0.000000 0.000000 0.000000 14.534664 1.196909 4.917121 14.124332 -54.020298 17.790763 -0.150266 -60.112192 0.065647 -20.426820 5.600904 -1.020934 0.465287 0.058020 0.000000 0.000000 0.000000 0.000000 0.000000 0.000000 0.000000 -10.373393 -2.429986 -0.401059 -7.121580 83.289679 -2.020708 0.028033 36.154920 0.039886 20.843113 -3.871943 -0.718988 -0.406895 -0.032335 0.000000 0.000000 0.000000 0.000000 0.000000 0.000000 0.000000 
0.195981 18.057580 -0.926154 -1.497253 78.467182 16.522230 -12.472040 4.619678 0.138883 -3.811450 18.206312 -9.252382 -1.183599 0.974976 19.211421 0.723592 -1.557983 23.299885 -1.072800 0.000000 -64.355200 8.403431 -2.682866 2.305188 20.447912 -3.775360 -41.735578 3.644704 -1.986722 23.535833 1.535475 8.635473 10.382068 2.125900 -0.000001 -68.347400 4.006221 -2.016248 -3.571562 1.005652 -2.307523 -3.616382 -2.274704 -2.403950 -0.169056 -0.102281 -7.051364 -7.416852 0.623767 0.047040 0.056712 0.000000 0.000000 0.000000 14.491620 1.536452 4.806718 13.899131 -53.857912 18.344472 -0.050552 -63.219370 0.067119 -19.450806 5.781766 -1.001893 0.448369 0.066334 0.000000 0.000000 0.000000 0.000000 0.000000 0.000000 0.000000 -9.583382 -2.932416 -0.187535 -9.155875 83.166739 -2.443115 -0.011398 38.647291 0.042974 21.415675 -3.918901 -0.747499 -0.419261 -0.036830 0.000000 0.000000 0.000000 0.000000 0.000000 0.000000 0.000000 
0.448685 18.062660 -0.860533 0.583437 78.327229 18.599167 -12.418532 4.719658 0.162013 -3.742547 17.920670 -8.710978 -1.054322 1.016754 20.306282 0.836141 -0.317928 23.560529 -0.526500 0.000000 -62.651600 8.351525 -2.756973 2.512717 20.892714 -3.724515 -41.034301 3.970558 -1.614092 19.821615 1.653476 8.968591 11.864459 2.387800 0.000000 -69.004300 3.809366 -2.085697 -3.823806 0.941923 -2.375504 -3.650598 -2.405924 -2.475003 -0.106553 0.145892 -7.464106 -7.483723 0.525727 0.041024 0.036959 0.000000 0.000000 0.000000 14.408736 1.787341 4.684740 13.726908 -53.711753 18.539252 0.029528 -66.066285 0.068079 -18.373013 5.609850 -0.914642 0.431387 0.082972 0.000000 0.000000 0.000000 0.000000 0.000000 0.000000 0.000000 -8.745880 -3.384002 -0.004263 -10.858500 82.958022 -2.908770 -0.071578 40.929352 0.046364 21.592427 -3.679751 -0.705015 -0.427423 -0.049190 0.000000 0.000000 0.000000 0.000000 0.000000 0.000000 0.000000 
0.698897 18.054392 -0.794681 2.826391 78.193888 20.734428 -12.331700 4.812597 0.198243 -3.734518 17.464805 -8.086638 -0.909674 1.062022 21.648568 0.954477 1.224903 23.408632 0.179800 0.000000 -60.965600 8.338785 -2.814436 2.625136 21.363549 -3.961548 -40.352491 4.235897 -1.284907 16.619336 1.750830 9.310373 13.367965 2.680400 -0.000000 -69.327901 3.564240 -2.151933 -3.993989 0.863908 -2.434194 -3.673322 -2.541678 -2.535534 -0.077002 0.403872 -7.831758 -7.521755 0.412915 0.033282 0.025499 0.000000 0.000000 0.000000 14.281421 1.941578 4.557834 13.648712 -53.564414 18.385758 0.089746 -68.669085 0.068793 -17.398617 5.133752 -0.787584 0.418204 0.106012 0.000000 0.000000 0.000000 0.000000 0.000000 0.000000 0.000000 -7.860585 -3.766802 0.153981 -12.220879 82.644106 -3.368831 -0.144007 43.005242 0.049815 21.439433 -3.204605 -0.604831 -0.432107 -0.068042 0.000000 0.000000 0.000000 0.000000 0.000000 0.000000 0.000000 
0.946276 18.032858 -0.728875 5.120557 78.057516 22.819596 -12.219774 4.896172 0.235342 -3.760082 16.910601 -7.405680 -0.757148 1.114734 23.248779 1.078385 2.924721 22.907323 0.952400 0.000001 -59.211000 8.355277 -2.861339 2.652568 21.862562 -4.417860 -39.665638 4.439752 -1.006558 13.950480 1.818608 9.594115 14.756816 2.959400 0.000000 -69.187100 3.286723 -2.211716 -4.081071 0.774914 -2.481480 -3.683643 -2.680681 -2.583492 -0.076178 0.668667 -8.128851 -7.527193 0.285797 0.023780 0.023404 0.000000 0.000000 0.000000 14.113015 1.995476 4.431048 13.681389 -53.406163 17.902040 0.131529 -71.039740 0.069708 -16.701589 4.446451 -0.648624 0.412023 0.132794 0.000000 0.000000 0.000000 0.000000 0.000000 0.000000 0.000000 -6.937136 -4.062324 0.291641 -13.221829 82.205429 -3.777723 -0.221495 44.890514 0.053100 21.047611 -2.561834 -0.467445 -0.434198 -0.091690 0.000000 0.000000 0.000000 0.000000 0.000000 0.000000 0.000000 
